<svg width="116" height="192" viewBox="0 0 116 192" fill="none" xmlns="http://www.w3.org/2000/svg">
<mask id="path-1-outside-1_2008_52" maskUnits="userSpaceOnUse" x="39" y="86" width="58" height="69" fill="black">
<rect fill="white" x="39" y="86" width="58" height="69"/>
<path d="M77.985 154L53.855 124.455V154H40.555V87.69H53.855V117.425L77.985 87.69H94.04L66.68 120.56L94.8 154H77.985Z"/>
</mask>
<path d="M77.985 154L53.855 124.455V154H40.555V87.69H53.855V117.425L77.985 87.69H94.04L66.68 120.56L94.8 154H77.985Z" fill="#ED7C1B"/>
<path d="M77.985 154L77.2105 154.633L77.5106 155H77.985V154ZM53.855 124.455L54.6295 123.822L52.855 121.65V124.455H53.855ZM53.855 154V155H54.855V154H53.855ZM40.555 154H39.555V155H40.555V154ZM40.555 87.69V86.69H39.555V87.69H40.555ZM53.855 87.69H54.855V86.69H53.855V87.69ZM53.855 117.425H52.855V120.244L54.6315 118.055L53.855 117.425ZM77.985 87.69V86.69H77.5087L77.2085 87.0599L77.985 87.69ZM94.04 87.69L94.8086 88.3298L96.1735 86.69H94.04V87.69ZM66.68 120.56L65.9114 119.92L65.3762 120.563L65.9146 121.204L66.68 120.56ZM94.8 154V155H96.9475L95.5654 153.356L94.8 154ZM77.985 154L78.7595 153.367L54.6295 123.822L53.855 124.455L53.0805 125.088L77.2105 154.633L77.985 154ZM53.855 124.455H52.855V154H53.855H54.855V124.455H53.855ZM53.855 154V153H40.555V154V155H53.855V154ZM40.555 154H41.555V87.69H40.555H39.555V154H40.555ZM40.555 87.69V88.69H53.855V87.69V86.69H40.555V87.69ZM53.855 87.69H52.855V117.425H53.855H54.855V87.69H53.855ZM53.855 117.425L54.6315 118.055L78.7615 88.3201L77.985 87.69L77.2085 87.0599L53.0785 116.795L53.855 117.425ZM77.985 87.69V88.69H94.04V87.69V86.69H77.985V87.69ZM94.04 87.69L93.2714 87.0503L65.9114 119.92L66.68 120.56L67.4486 121.2L94.8086 88.3298L94.04 87.69ZM66.68 120.56L65.9146 121.204L94.0346 154.644L94.8 154L95.5654 153.356L67.4454 119.916L66.68 120.56ZM94.8 154V153H77.985V154V155H94.8V154Z" fill="#EC7A17" mask="url(#path-1-outside-1_2008_52)"/>
<path d="M87.8311 68.0172L45.1041 83.1866L19.7856 53.2173L43.5072 59.0369L50.2595 29.2637L73.5243 48.3686L90.9093 29.4179L87.8311 68.0172Z" fill="#EC7D1A" stroke="#EC7A17"/>
<circle cx="48.9531" cy="25.062" r="3.5" transform="rotate(12.6042 48.9531 25.062)" fill="#EC7D1A" stroke="#EC7A17"/>
<circle cx="91.9049" cy="25.4438" r="3.5" transform="rotate(12.6042 91.9049 25.4438)" fill="#EC7D1A" stroke="#EC7A17"/>
<circle cx="16.3786" cy="51.5932" r="3.5" transform="rotate(12.6042 16.3786 51.5932)" fill="#EC7D1A" stroke="#EC7A17"/>
</svg>
